HIERARCHY
ROOT SpineBase
{
  OFFSET 0.000000 0.000000 0.000000
  CHANNELS 6 Xposition Yposition Zposition Zrotation Xrotation Yrotation
  JOINT SpineMid
  {
    OFFSET -0.000000 27.769912 0.000000
    CHANNELS 3 Zrotation Xrotation Yrotation
    JOINT SpineShoulder
    {
      OFFSET 0.665197 20.666968 -0.064607
      CHANNELS 3 Zrotation Xrotation Yrotation
      JOINT Neck
      {
        OFFSET 0.188211 6.868530 -0.289969
        CHANNELS 3 Zrotation Xrotation Yrotation
        JOINT Head
        {
          OFFSET 5.674539 11.369572 -1.700545
          CHANNELS 3 Zrotation Xrotation Yrotation
          End Site
          {
            OFFSET 0 0 0
          }
        }
      }
      JOINT ShoulderLeft
      {
        OFFSET -14.411928 -0.941873 -7.634378
        CHANNELS 3 Zrotation Xrotation Yrotation
        JOINT ElbowLeft
        {
          OFFSET -6.852625 -21.778283 -4.053598
          CHANNELS 3 Zrotation Xrotation Yrotation
          JOINT WristLeft
          {
            OFFSET 0.374702 -22.737671 -6.188589
            CHANNELS 3 Zrotation Xrotation Yrotation
            JOINT HandLeft
            {
              OFFSET 2.172468 -7.135785 -1.187557
              CHANNELS 3 Zrotation Xrotation Yrotation
              JOINT HandTipLeft
              {
                OFFSET 0.231079 -7.536618 -0.642467
                CHANNELS 3 Zrotation Xrotation Yrotation
                End Site
                {
                  OFFSET 0 0 0
                }
              }
              JOINT ThumbLeft
              {
                OFFSET 3.233360 2.920331 0.302373
                CHANNELS 3 Zrotation Xrotation Yrotation
                End Site
                {
                  OFFSET 0 0 0
                }
              }
            }
          }
        }
      }
      JOINT ShoulderRight
      {
        OFFSET 13.891870 -6.185351 5.760192
        CHANNELS 3 Zrotation Xrotation Yrotation
        JOINT ElbowRight
        {
          OFFSET -1.776822 -25.842108 2.430704
          CHANNELS 3 Zrotation Xrotation Yrotation
          JOINT WristRight
          {
            OFFSET -4.336799 -18.123172 -8.153128
            CHANNELS 3 Zrotation Xrotation Yrotation
            JOINT HandRight
            {
              OFFSET -0.663526 -6.048609 0.005622
              CHANNELS 3 Zrotation Xrotation Yrotation
              JOINT HandTipRight
              {
                OFFSET -1.660362 -6.433766 -1.668353
                CHANNELS 3 Zrotation Xrotation Yrotation
                End Site
                {
                  OFFSET 0 0 0
                }
              }
              JOINT ThumbRight
              {
                OFFSET -2.629257 -0.135095 -4.074898
                CHANNELS 3 Zrotation Xrotation Yrotation
                End Site
                {
                  OFFSET 0 0 0
                }
              }
            }
          }
        }
      }
    }
  }
  JOINT HipLeft
  {
    OFFSET -6.452661 1.577509 -5.563814
    CHANNELS 3 Zrotation Xrotation Yrotation
    JOINT KneeLeft
    {
      OFFSET -13.836197 -34.515565 -2.579860
      CHANNELS 3 Zrotation Xrotation Yrotation
      JOINT AnkleLeft
      {
        OFFSET -5.848943 -23.411684 2.065787
        CHANNELS 3 Zrotation Xrotation Yrotation
        JOINT FootLeft
        {
          OFFSET 3.432388 -3.983185 -12.070764
          CHANNELS 3 Zrotation Xrotation Yrotation
          End Site
          {
            OFFSET 0 0 0
          }
        }
      }
    }
  }
  JOINT HipRight
  {
    OFFSET 5.387250 -0.293146 -1.113308
    CHANNELS 3 Zrotation Xrotation Yrotation
    JOINT KneeRight
    {
      OFFSET -8.339835 -28.358960 4.421492
      CHANNELS 3 Zrotation Xrotation Yrotation
      JOINT AnkleRight
      {
        OFFSET -5.591269 -31.821388 10.019765
        CHANNELS 3 Zrotation Xrotation Yrotation
        JOINT FootRight
        {
          OFFSET 3.823628 -7.082363 -1.735515
          CHANNELS 3 Zrotation Xrotation Yrotation
          End Site
          {
            OFFSET 0 0 0
          }
        }
      }
    }
  }
}
MOTION
Frames: 10
Frame Time: 0.033333
71.809505 68.273523 428.872303 0.000000 0.000000 -20.600749 -0.000000 0.000000 20.600749 -0.000000 0.000000 0.000000 -0.000000 0.000000 0.000000 0.000000 0.000000 0.000000 -0.000000 0.000000 0.000000 -0.000000 0.000000 0.000000 -0.000000 0.000000 0.000000 -0.000000 0.000000 0.000000 0.000000 0.000000 0.000000 0.000000 0.000000 0.000000 -0.000000 0.000000 0.000000 -0.000000 0.000000 0.000000 -0.000000 0.000000 0.000000 -0.000000 0.000000 0.000000 0.000000 0.000000 0.000000 0.000000 0.000000 0.000000 -0.000000 0.000000 20.600749 -0.000000 0.000000 0.000000 -0.000000 0.000000 0.000000 0.000000 0.000000 0.000000 -0.000000 0.000000 20.600749 -0.000000 0.000000 0.000000 -0.000000 0.000000 0.000000 0.000000 0.000000 0.000000
71.693388 68.456150 428.547584 -0.139067 0.119001 -21.364452 0.172863 -0.060161 21.364687 -0.000000 0.000000 0.000000 -0.000000 0.000000 0.000000 0.000000 0.000000 0.000000 -0.000000 0.000000 0.000000 -0.000000 0.000000 0.000000 -0.000000 0.000000 0.000000 -0.000000 0.000000 0.000000 0.000000 0.000000 0.000000 0.000000 0.000000 0.000000 -0.000000 0.000000 0.000000 -0.000000 0.000000 0.000000 0.967012 -3.892741 0.461366 -3.029499 4.438057 0.159043 0.000000 0.000000 0.000000 0.000000 0.000000 0.000000 -1.638747 2.762126 20.143723 0.253419 -4.848174 1.595758 0.520336 1.561286 -0.352079 0.000000 0.000000 0.000000 0.172863 -0.060161 21.364687 -0.000000 0.000000 0.000000 -1.952916 0.079740 0.527776 0.000000 0.000000 0.000000
71.573552 68.615188 428.242949 -0.294754 0.243376 -21.928798 0.364319 -0.115687 21.929792 -0.000000 0.000000 0.000000 -0.568858 0.584468 -0.373252 0.000000 0.000000 0.000000 -0.000000 0.000000 0.000000 -0.000000 0.000000 0.000000 -0.779477 0.728868 0.356948 1.103616 0.732482 -0.329289 0.000000 0.000000 0.000000 0.000000 0.000000 0.000000 -0.000000 0.000000 0.000000 -0.000000 0.000000 0.000000 1.715867 -7.048192 0.882812 -5.905760 8.200702 0.702974 0.000000 0.000000 0.000000 0.000000 0.000000 0.000000 -3.136858 5.460904 19.600281 0.684142 -9.109602 3.055152 0.895215 2.642077 -0.604242 0.000000 0.000000 0.000000 0.364319 -0.115687 21.929792 -0.000000 0.000000 0.000000 -3.546839 0.197554 0.998437 0.000000 0.000000 0.000000
71.449998 68.750637 427.958398 -0.467037 0.373053 -22.312919 0.573703 -0.167791 22.315280 -0.000000 0.000000 0.000000 -0.731721 0.862369 -0.533250 0.000000 0.000000 0.000000 0.906301 0.045027 -0.183661 -0.906152 -0.047926 0.182926 -1.268923 0.951235 0.512344 1.677681 1.137876 -0.461433 0.000000 0.000000 0.000000 0.000000 0.000000 0.000000 -0.000000 0.000000 0.000000 -0.000000 0.000000 0.000000 2.249680 -9.524743 1.239331 -8.388409 11.264930 1.428214 0.000000 0.000000 0.000000 0.000000 0.000000 0.000000 -4.355632 7.935058 19.038070 1.137678 -12.731970 4.353447 1.170046 3.398785 -0.784882 0.000000 0.000000 0.000000 0.573703 -0.167791 22.315280 -0.000000 0.000000 0.000000 -4.781174 0.359708 1.412185 0.000000 0.000000 0.000000
71.322725 68.862498 427.693931 -0.655861 0.507947 -22.530614 0.800439 -0.217836 22.535043 -0.000000 0.000000 0.000000 -0.813940 1.129674 -0.676148 0.000000 0.000000 0.000000 1.163418 0.046888 -0.232509 -0.856504 -0.910193 0.137191 -2.137080 1.925315 0.776047 2.266188 1.562096 -0.571320 0.000000 0.000000 0.000000 0.000000 0.000000 0.000000 -0.000000 0.000000 0.000000 -0.000000 0.000000 0.000000 2.571024 -11.380137 1.514615 -10.147356 13.610483 2.074478 0.000000 0.000000 0.000000 0.000000 0.000000 0.000000 -5.157357 9.998909 18.509303 1.467928 -15.587298 5.413621 1.371816 3.920948 -0.911321 0.000000 0.000000 0.000000 1.732701 -0.704030 22.885100 -0.669883 0.810384 -0.337820 -5.658235 0.571317 1.769247 0.000000 0.000000 0.000000
71.191734 68.950770 427.449548 -0.861144 0.647960 -22.591219 1.043990 -0.267363 22.598524 0.669400 -0.518276 0.045489 -1.484362 1.905029 -0.834495 0.000000 0.000000 0.000000 0.728292 0.559887 -0.326985 -1.164902 -0.972477 0.198504 -2.697753 1.996601 0.884220 2.871185 2.002664 -0.658605 0.000000 0.000000 0.000000 0.000000 0.000000 0.000000 -0.669016 0.518772 -0.039432 -0.000000 0.000000 0.000000 2.681351 -12.662630 1.698875 -10.909080 15.232025 2.405975 0.000000 0.000000 0.000000 0.000000 0.000000 0.000000 -5.422111 11.467136 18.051673 1.538240 -17.526380 6.135622 1.517185 4.261662 -0.994284 0.000000 0.000000 0.000000 2.280528 -0.981062 23.081061 -0.857960 1.141137 -0.460521 -6.181680 0.836405 2.069416 0.000000 0.000000 0.000000
71.034517 69.022710 427.247790 -1.090274 0.707258 -22.594825 1.278326 -0.233967 22.604165 0.672577 -0.623710 0.049143 -1.544204 2.473756 -1.070253 0.000000 0.000000 0.000000 0.955795 0.562668 -0.344071 -1.623152 -0.776006 0.272259 -2.960615 1.380919 0.737148 3.791270 1.985354 -0.651047 0.000000 0.000000 0.000000 0.000000 0.000000 0.000000 -0.672082 0.624244 -0.041821 -0.000000 0.000000 0.000000 2.503839 -13.571602 1.800070 -8.939690 16.962307 1.390738 0.000000 0.000000 0.000000 0.000000 0.000000 0.000000 -5.393847 13.168627 17.494855 1.246860 -19.499362 6.824854 2.310438 6.669445 -0.922726 0.000000 0.000000 0.000000 2.922392 -1.182654 23.248266 -1.136574 1.520192 -0.608696 -5.935169 0.834855 2.001968 0.000000 0.000000 0.000000
70.956889 69.051930 427.064902 -1.240214 0.763579 -22.096430 1.436354 -0.240820 22.107713 0.711704 -0.856099 0.058814 -1.417278 3.187842 -1.292354 0.000000 0.000000 0.000000 1.109521 0.736566 -0.376712 -1.820978 0.108601 0.304943 -3.122634 1.171758 0.914509 3.871007 1.317093 -0.834237 0.000000 0.000000 0.000000 0.000000 0.000000 0.000000 -0.710904 0.856763 -0.048182 -0.000000 0.000000 0.000000 1.643575 -11.949149 1.491247 -7.656921 14.649905 1.176913 0.000000 0.000000 0.000000 0.000000 0.000000 0.000000 -4.425698 12.328338 17.266649 0.862299 -18.457501 6.407944 1.037480 4.313559 0.404524 0.000000 0.000000 0.000000 3.311759 -1.557452 22.897547 -1.216182 1.941935 -0.739788 -5.544482 1.054268 2.028212 0.000000 0.000000 0.000000
70.876717 69.020833 426.990869 -1.421769 0.851833 -21.718351 1.636054 -0.265029 21.732705 0.683950 -0.953195 0.060673 -1.051473 3.339705 -1.283476 0.000000 0.000000 0.000000 1.285095 0.816103 -0.405233 -1.968791 0.124311 0.327670 -4.249390 -0.508462 0.540353 4.198922 4.317562 -0.448528 0.000000 0.000000 0.000000 0.000000 0.000000 0.000000 -0.683035 0.953851 -0.049298 -0.000000 0.000000 0.000000 1.519014 -12.985558 1.606991 -7.121296 16.391403 0.838666 0.000000 0.000000 0.000000 0.000000 0.000000 0.000000 -2.784543 9.960632 17.692279 0.273903 -15.463220 5.293611 0.698037 4.108281 0.566703 0.000000 0.000000 0.000000 3.748153 -1.863458 22.652625 -1.334830 2.287636 -0.854029 -5.372389 1.927006 2.500978 0.000000 0.000000 0.000000
70.603360 69.065702 426.611127 -1.913908 1.397340 -21.406253 2.291949 -0.601697 21.441631 0.568121 -0.906826 0.053319 -0.472093 3.233331 -1.198848 0.000000 0.000000 0.000000 1.522342 0.950085 -0.483600 -2.722339 -0.711114 0.563269 -5.087950 0.299015 0.738025 6.220978 5.740492 -0.764169 0.000000 0.000000 0.000000 0.000000 0.000000 0.000000 -0.567348 0.907310 -0.044331 0.653177 -1.541598 0.084484 0.216081 -10.600936 1.340755 -5.416958 16.016934 0.138627 0.000000 0.000000 0.000000 0.000000 0.000000 0.000000 0.666724 7.088071 18.326990 -2.001914 -11.835524 3.822654 -0.838857 -0.537899 2.206771 0.000000 0.000000 0.000000 5.011408 -2.724008 22.668081 -2.461142 3.193084 -1.334281 -4.237787 2.803740 3.283534 0.000000 0.000000 0.000000
